<?xml version="1.0" encoding="UTF-8" standalone="no"?>
<!-- Created with Inkscape (http://www.inkscape.org/) -->

<svg
   xmlns:dc="http://purl.org/dc/elements/1.1/"
   xmlns:cc="http://creativecommons.org/ns#"
   xmlns:rdf="http://www.w3.org/1999/02/22-rdf-syntax-ns#"
   xmlns:svg="http://www.w3.org/2000/svg"
   xmlns="http://www.w3.org/2000/svg"
   xmlns:inkscape="http://www.inkscape.org/namespaces/inkscape"
   version="1.1"
   width="1280"
   height="960"
   id="svg2"
   xml:space="preserve"><metadata
     id="metadata8"><rdf:RDF><cc:Work
         rdf:about=""><dc:format>image/svg+xml</dc:format><dc:type
           rdf:resource="http://purl.org/dc/dcmitype/StillImage" /></cc:Work></rdf:RDF></metadata><defs
     id="defs6"><clipPath
       id="clipPath16"><path
         d="M 0,768 1024,768 1024,0 0,0 0,768 z"
         inkscape:connector-curvature="0"
         id="path18" /></clipPath><clipPath
       id="clipPath40"><path
         d="M 0,768 1024,768 1024,0 0,0 0,768 z"
         inkscape:connector-curvature="0"
         id="path42" /></clipPath></defs><g
     transform="matrix(1.25,0,0,-1.25,0,960)"
     id="g10"><g
       id="g12"><g
         clip-path="url(#clipPath16)"
         id="g14"><g
           transform="translate(690.2461,640.3633)"
           id="g20"><path
             d="m 0,0 c 0,0 -0.088,-437.593 -0.088,-448.173 0,-36.806 -47.918,-35.776 -47.918,-35.776 l -127,0 c -26.125,0 -42.056,-23.988 -42.056,-23.988 0,0 -14.107,23.988 -44.944,23.988 l -119,0 c 0,0 -55.994,-2.224 -55.994,31.375 L -437,0.056 0,0 z"
             inkscape:connector-curvature="0"
             id="path22"
             style="fill:#ffffff;fill-opacity:1;fill-rule:evenodd;stroke:none" /></g><g
           transform="translate(690.2461,640.3633)"
           id="g24"><path
             d="m 0,0 c 0,0 -0.088,-437.593 -0.088,-448.173 0,-36.806 -47.918,-35.776 -47.918,-35.776 l -127,0 c -26.125,0 -42.056,-23.988 -42.056,-23.988 0,0 -14.107,23.988 -44.944,23.988 l -119,0 c 0,0 -55.994,-2.224 -55.994,31.375 L -437,0.056 0,0 z"
             inkscape:connector-curvature="0"
             id="path26"
             style="fill:none;stroke:#000000;stroke-width:1;stroke-linecap:butt;stroke-linejoin:miter;stroke-miterlimit:10;stroke-opacity:1;stroke-dasharray:none" /></g><g
           transform="translate(674.2402,625.4141)"
           id="g28"><path
             d="M 0,0 C 0,0 0.035,-410.776 0.035,-420.743 0.035,-453.973 -40,-452 -40,-452 l -119,0 c -24.629,0 -42.074,-18.573 -42.074,-18.573 0,0 -15.856,18.573 -44.926,18.573 l -111,0 c 0,0 -48.106,-2.064 -48.106,23.315 C -405.106,-410.742 -405,0 -405,0 L 0,0 z"
             inkscape:connector-curvature="0"
             id="path30"
             style="fill:#000000;fill-opacity:1;fill-rule:evenodd;stroke:none" /></g><g
           transform="translate(674.2402,625.4141)"
           id="g32"><path
             d="M 0,0 C 0,0 0.035,-410.776 0.035,-420.743 0.035,-453.973 -40,-452 -40,-452 l -119,0 c -24.629,0 -42.074,-18.573 -42.074,-18.573 0,0 -15.856,18.573 -44.926,18.573 l -111,0 c 0,0 -48.106,-2.064 -48.106,23.315 C -405.106,-410.742 -405,0 -405,0 L 0,0 z"
             inkscape:connector-curvature="0"
             id="path34"
             style="fill:none;stroke:#ffffff;stroke-width:1;stroke-linecap:butt;stroke-linejoin:miter;stroke-miterlimit:10;stroke-opacity:1;stroke-dasharray:none" /></g></g></g><g
       id="g36"><g
         clip-path="url(#clipPath40)"
         id="g38"><g
           transform="translate(375.2842,276.9932)"
           id="g44"><path
             d="m 0,0 c 4.275,-6.265 6.775,-13.837 6.775,-21.993 0,-21.572 -17.487,-39.06 -39.059,-39.06 -21.572,0 -39.06,17.488 -39.06,39.06 0,21.572 17.488,39.059 39.06,39.059 6.183,0 12.031,-1.436 17.227,-3.994"
             inkscape:connector-curvature="0"
             id="path46"
             style="fill:#ffffff;fill-opacity:1;fill-rule:evenodd;stroke:#ffffff;stroke-width:1;stroke-linecap:butt;stroke-linejoin:miter;stroke-miterlimit:10;stroke-opacity:1;stroke-dasharray:none" /></g><g
           transform="translate(571.5439,275.1689)"
           id="g48"><path
             d="m 0,0 c -3.558,-5.888 -5.604,-12.789 -5.604,-20.169 0,-21.572 17.488,-39.06 39.06,-39.06 21.572,0 39.06,17.488 39.06,39.06 0,21.572 -17.488,39.06 -39.06,39.06 -6.184,0 -13.263,-1.958 -18.458,-4.516"
             inkscape:connector-curvature="0"
             id="path50"
             style="fill:#ffffff;fill-opacity:1;fill-rule:evenodd;stroke:#ffffff;stroke-width:1;stroke-linecap:butt;stroke-linejoin:miter;stroke-miterlimit:10;stroke-opacity:1;stroke-dasharray:none" /></g><g
           transform="translate(597.6748,277.9238)"
           id="g52"><path
             d="m 0,0 c 2.577,0.942 4.422,1.136 7.325,1.136 13.288,0 24.06,-10.772 24.06,-24.06 0,-13.288 -10.772,-24.059 -24.06,-24.059 -13.288,0 -24.059,10.771 -24.059,24.059 0,3.293 0.661,6.432 1.858,9.289"
             inkscape:connector-curvature="0"
             id="path54"
             style="fill:#000000;fill-opacity:1;fill-rule:evenodd;stroke:#ffffff;stroke-width:1;stroke-linecap:butt;stroke-linejoin:miter;stroke-miterlimit:10;stroke-opacity:1;stroke-dasharray:none" /></g><g
           transform="translate(348.7656,526.1982)"
           id="g56"><path
             d="m 0,0 c 0,0 -3.506,7.047 3.06,11.327 6.564,4.279 12.177,7.321 23.161,5.227 C 37.203,14.46 42.389,10.02 42.389,10.02 L 37.146,4.356 c 0,0 17.807,-6.046 34.959,-18.732 -4.465,11.891 -12.97,28.267 -21.849,38.336 -1.723,-6.897 -2.623,-7.841 -2.623,-7.841 0,0 -11.058,10.153 -26.656,11.326 -8.37,0 -19.921,-1.742 -32.338,-1.742 -12.418,0 -27.532,3.049 -27.532,3.049 0,0 3.059,-12.862 3.059,-22.653 0,-9.791 -2.989,-30.622 -1.311,-38.772 2.335,-13.348 9.614,-22.219 9.614,-22.219 0,0 -3.193,-1.972 -6.117,-2.613 1.261,-1.46 14.474,-13.683 37.144,-23.09 -4.447,6.584 -14.936,22.553 -20.539,36.158 -3.742,-5.782 -4.807,-6.097 -4.807,-6.097 0,0 -4.966,8.215 -5.244,17.861 -0.277,9.645 3.674,17.522 6.555,20.91 2.881,3.389 5.08,4.713 7.866,4.357 2.694,-0.345 3.095,-2.213 9.177,-8.278 5.693,-5.674 136.166,-142.913 136.166,-142.913 l 66.166,-67.503 c 0,0 2.234,-3.776 1.747,-6.969 -0.487,-3.194 -10.721,-28.657 -14.858,-38.773 -4.137,-10.116 -5.68,-17.861 -5.68,-17.861 l 10.051,-3.485 c 0,0 5.201,20.325 28.841,46.178 1.727,-2.126 14.672,-14.688 14.672,-14.688 0,0 6.097,-3.538 11.875,2 6,5.75 3.911,11.575 2.417,13.083 l -13.754,13.531 c 0,0 11.732,14.889 44.222,27.896 -3.76,8.131 -3.933,8.277 -3.933,8.277 0,0 -19.005,-2.889 -43.7,-13.069 -2.795,-1.067 -15.029,-4.622 -18.353,-1.307 C 209.55,-208.463 0,0 0,0"
             inkscape:connector-curvature="0"
             id="path58"
             style="fill:#ffffff;fill-opacity:1;fill-rule:evenodd;stroke:none" /></g><g
           transform="translate(348.7656,526.1982)"
           id="g60"><path
             d="m 0,0 c 0,0 -3.506,7.047 3.06,11.327 6.564,4.279 12.177,7.321 23.161,5.227 C 37.203,14.46 42.389,10.02 42.389,10.02 L 37.146,4.356 c 0,0 17.807,-6.046 34.959,-18.732 -4.465,11.891 -12.97,28.267 -21.849,38.336 -1.723,-6.897 -2.623,-7.841 -2.623,-7.841 0,0 -11.058,10.153 -26.656,11.326 -8.37,0 -19.921,-1.742 -32.338,-1.742 -12.418,0 -27.532,3.049 -27.532,3.049 0,0 3.059,-12.862 3.059,-22.653 0,-9.791 -2.989,-30.622 -1.311,-38.772 2.335,-13.348 9.614,-22.219 9.614,-22.219 0,0 -3.193,-1.972 -6.117,-2.613 1.261,-1.46 14.474,-13.683 37.144,-23.09 -4.447,6.584 -14.936,22.553 -20.539,36.158 -3.742,-5.782 -4.807,-6.097 -4.807,-6.097 0,0 -4.966,8.215 -5.244,17.861 -0.277,9.645 3.674,17.522 6.555,20.91 2.881,3.389 5.08,4.713 7.866,4.357 2.694,-0.345 3.095,-2.213 9.177,-8.278 5.693,-5.674 136.166,-142.913 136.166,-142.913 l 66.166,-67.503 c 0,0 2.234,-3.776 1.747,-6.969 -0.487,-3.194 -10.721,-28.657 -14.858,-38.773 -4.137,-10.116 -5.68,-17.861 -5.68,-17.861 l 10.051,-3.485 c 0,0 5.201,20.325 28.841,46.178 1.727,-2.126 14.672,-14.688 14.672,-14.688 0,0 6.097,-3.538 11.875,2 6,5.75 3.911,11.575 2.417,13.083 l -13.754,13.531 c 0,0 11.732,14.889 44.222,27.896 -3.76,8.131 -3.933,8.277 -3.933,8.277 0,0 -19.005,-2.889 -43.7,-13.069 -2.795,-1.067 -15.029,-4.622 -18.353,-1.307 C 209.55,-208.463 0,0 0,0 z"
             inkscape:connector-curvature="0"
             id="path62"
             style="fill:none;stroke:#000000;stroke-width:1;stroke-linecap:butt;stroke-linejoin:miter;stroke-miterlimit:10;stroke-opacity:1;stroke-dasharray:none" /></g><g
           transform="translate(364.4238,265.9609)"
           id="g64"><path
             d="m 0,0 c 1.685,-3.288 2.636,-7.014 2.636,-10.961 0,-13.288 -10.772,-24.06 -24.06,-24.06 -13.288,0 -24.059,10.772 -24.059,24.06 0,13.288 10.771,24.06 24.059,24.06 2.303,0 4.531,-0.324 6.64,-0.928"
             inkscape:connector-curvature="0"
             id="path66"
             style="fill:#000000;fill-opacity:1;fill-rule:evenodd;stroke:#ffffff;stroke-width:1;stroke-linecap:butt;stroke-linejoin:miter;stroke-miterlimit:10;stroke-opacity:1;stroke-dasharray:none" /></g><g
           transform="translate(485.667,389.6665)"
           id="g68"><path
             d="m 0,0 96.457,102.116 c 0,0 14.23,12.518 24.472,11.762 10.242,-0.755 14.858,-3.92 14.858,-3.92 0,0 0.038,-9.986 -10.052,-19.169 -2.099,4.085 -2.621,4.793 -2.621,4.793 0,0 -19.603,-25.831 -25.783,-30.061 12.49,3.697 27.432,8.338 40.641,17.862 -4.951,1.95 -5.681,2.178 -5.681,2.178 0,0 8.459,8.488 11.362,12.634 1.681,-5.341 2.03,-18.104 -7.866,-27.987 -1.563,2.078 -3.496,4.898 -3.496,4.898 0,0 -15.303,-22.327 -25.783,-32.237 11.235,2.529 26.368,8.153 42.826,20.474 -6.731,1.057 -7.429,1.307 -7.429,1.307 0,0 15.295,14.781 15.295,35.723 0,11.72 -12.236,20.475 -12.236,20.475 0,0 -5.82,9.101 -19.229,9.149 -10.776,0 -13.983,-3.485 -13.983,-3.485 0,0 5.443,19.214 1.311,26.138 -5.664,9.494 -13.984,10.02 -13.984,10.02 0,0 -7.098,9.584 -24.035,9.584 -16.938,0 -30.59,-15.247 -30.59,-15.247 l -2.185,3.049 c 0,0 -7.26,-6.947 -14.421,-37.901 8.139,8.588 16.71,18.045 28.405,25.703 -5.162,2.315 -5.244,2.179 -5.244,2.179 0,0 8.961,11.314 21.449,11.314 2.467,0 7.438,-1.268 7.438,-1.268 0,0 -5.875,-3.375 -12.282,-12.66 -2.914,4.181 -3.058,4.356 -3.058,4.356 0,0 -10.452,-12.793 -15.295,-39.644 7.583,7.007 22.175,19.461 31.9,25.703 -7.502,2.609 -7.865,2.615 -7.865,2.615 0,0 8.037,10.693 16.169,10.455 2.874,-0.084 6.819,-1.721 7.743,-5.95 0.923,-4.228 1.737,-16.543 -5.995,-25.416 C 85.126,112.556 12.663,40.099 -13,14.667"
             inkscape:connector-curvature="0"
             id="path70"
             style="fill:#ffffff;fill-opacity:1;fill-rule:evenodd;stroke:#000000;stroke-width:1;stroke-linecap:square;stroke-linejoin:round;stroke-miterlimit:10;stroke-opacity:1;stroke-dasharray:none" /></g><g
           transform="translate(456.7578,386.6504)"
           id="g72"><path
             d="m 0,0 -106.758,-106.817 c 0,0 -2.187,-6.646 2.875,-11.708 5.063,-5.063 11.625,-2.126 11.625,-2.126 L 8.407,-18.07"
             inkscape:connector-curvature="0"
             id="path74"
             style="fill:#ffffff;fill-opacity:1;fill-rule:evenodd;stroke:#000000;stroke-width:1;stroke-linecap:butt;stroke-linejoin:miter;stroke-miterlimit:10;stroke-opacity:1;stroke-dasharray:none" /></g><g
           transform="translate(571.1621,291.0781)"
           id="g76"><path
             d="M 0,0 -261.289,263.873"
             inkscape:connector-curvature="0"
             id="path78"
             style="fill:none;stroke:#000000;stroke-width:1;stroke-linecap:butt;stroke-linejoin:miter;stroke-miterlimit:10;stroke-opacity:1;stroke-dasharray:none" /></g><g
           transform="translate(488.6899,564.0835)"
           id="g80"><path
             d="m 0,0 c 0.158,0.752 -0.333,2.333 -1.25,3.333 -0.917,1 -2.083,1.25 -3.22,1.334 C -5.607,4.75 -8.917,7 -9.458,8.5 -10,10 -9.167,9.917 -7.333,9.417 -5.5,8.917 -3.917,8.333 -3.25,7.333 c 0.667,-1 3.417,-1.5 3.417,-1.5 C 1,5.166 2.833,6.083 4.083,5.917 5.333,5.75 4.333,8.417 5.523,7.5 6.713,6.583 8.177,7.354 8.177,7.354 c 1.912,0.284 0.754,3.087 0.754,3.087 0,0 2.902,0.107 3.934,0.872 1.031,0.764 0.341,2.428 0.437,3.485 0.096,1.057 -1.57,1.02 -1.311,1.743 0.259,0.722 -0.874,1.742 -0.874,1.742 0,0 1.987,1.488 1.748,2.178 -0.24,0.69 -1.311,1.307 -1.311,1.307 0,0 1.448,1.854 1.311,2.614 -0.138,0.76 -1.311,0.871 -1.311,0.871 0,0 0.838,1.359 0.873,2.614 0.035,1.255 -1.547,0.496 -1.748,0.871 0.476,0.928 0.342,2.804 -1.179,1.824 0.917,1.875 0,4.73 -0.569,4.711 C 8.362,35.254 6.437,31.5 1.066,26.56 -0.519,25.103 -3.622,22.116 -3.741,21.768 -3.862,21.42 -3.954,20.21 -3.304,19.59 c 0.649,-0.621 2.212,-1.897 0.874,-3.049 -1.338,-1.154 -4.653,-1.159 -5.244,0 -0.591,1.157 1.427,1.442 1.31,2.177 -0.117,0.736 -1.934,1.581 -2.184,2.615 -0.25,1.033 -1.336,2.424 -0.874,3.484 0.462,1.061 0.547,2.55 2.185,2.614 1.637,0.065 2.416,-1.876 3.059,-0.871 0.641,1.005 0.874,1.743 0.874,1.743 0,0 0.993,-0.827 1.748,-0.436 0.755,0.391 0.93,1.608 0.436,2.178 -0.492,0.571 -1.052,1.954 -0.436,2.614 0.616,0.66 1.889,1.903 3.058,1.307 C 2.671,33.37 2.125,31.271 3.25,31.352 3.919,31.4 5,32.479 4.999,33.53 4.997,34.582 4.082,34.737 4.13,35.276 c 0.049,0.538 1.121,0.101 1.703,0.766 0.584,0.664 -0.781,0.781 -0.781,0.781 0,0 -0.309,1.018 -1.094,1.265 -0.89,0.282 -1.554,-0.816 -1.875,-0.328 -2.093,3.188 -4.187,0.391 -3.352,-0.765 0.49,-0.678 -0.194,-2.266 -1.335,-2.469 -1.141,-0.203 -0.192,1.14 -0.25,1.953 -0.156,2.203 -2.344,2.641 -2.635,3.15 -0.291,0.51 -0.058,1.863 -1.162,1.772 -1.103,-0.091 -1.006,-1.855 -1.023,-2.207 -0.018,-0.353 -0.662,-0.394 -1.311,-0.436 -1.293,-0.083 -0.39,-2.091 -1.432,-2.175 -1.041,-0.083 -1.791,1.834 -1.25,3.209 0.542,1.375 0.059,2.451 0.059,2.451 0,0 -0.434,1.135 -2.82,1.508 0.401,1.865 -1.143,1.666 -1.143,1.666 0,0 -1.461,0.199 -1.059,-1.666 -2.387,-0.373 -3.089,-1.625 -3.089,-1.625 0,0 -0.497,-1.018 0.044,-2.393 0.542,-1.375 -0.216,-3.263 -1.258,-3.179 -1.041,0.083 -0.142,2.107 -1.435,2.19 -0.648,0.041 -1.295,0.09 -1.312,0.443 -0.018,0.352 0.079,2.119 -1.025,2.21 -1.103,0.092 -0.871,-1.26 -1.162,-1.77 -0.291,-0.509 -2.479,-0.946 -2.635,-3.149 -0.058,-0.813 0.89,-2.156 -0.25,-1.953 -1.141,0.204 -1.826,1.792 -1.336,2.47 0.836,1.156 -1.258,3.953 -3.352,0.765 -0.321,-0.488 -0.984,0.61 -1.875,0.328 -0.784,-0.247 -1.094,-1.265 -1.094,-1.265 0,0 -1.365,-0.117 -0.781,-0.781 0.582,-0.665 1.654,-0.228 1.703,-0.766 0.049,-0.539 -0.867,-0.694 -0.868,-1.746 -0.001,-1.051 1.079,-2.13 1.748,-2.178 1.126,-0.081 0.579,2.018 1.748,2.614 1.169,0.596 2.442,-0.647 3.059,-1.307 0.616,-0.66 0.055,-2.043 -0.437,-2.614 -0.493,-0.57 -0.318,-1.787 0.437,-2.178 0.755,-0.391 1.748,0.436 1.748,0.436 0,0 0.232,-0.738 0.874,-1.743 0.642,-1.005 1.422,0.936 3.058,0.871 1.639,-0.064 1.724,-1.553 2.186,-2.614 0.462,-1.06 -0.624,-2.451 -0.874,-3.484 -0.25,-1.034 -2.067,-1.879 -2.185,-2.615 -0.117,-0.735 1.902,-1.02 1.311,-2.177 -0.591,-1.159 -3.906,-1.154 -5.244,0 -1.338,1.152 0.224,2.428 0.874,3.049 0.649,0.62 0.557,1.83 0.436,2.178 -0.119,0.348 -3.221,3.335 -4.806,4.792 -5.372,4.94 -7.297,8.694 -7.866,8.713 -0.568,0.019 -1.485,-2.836 -0.568,-4.711 -1.521,0.98 -1.655,-0.896 -1.18,-1.824 -0.201,-0.375 -1.783,0.384 -1.748,-0.871 0.035,-1.255 0.873,-2.614 0.873,-2.614 0,0 -1.172,-0.111 -1.31,-0.871 -0.138,-0.76 1.31,-2.614 1.31,-2.614 0,0 -1.07,-0.617 -1.31,-1.307 -0.239,-0.69 1.748,-2.178 1.748,-2.178 0,0 -1.133,-1.02 -0.874,-1.742 0.259,-0.723 -1.407,-0.686 -1.312,-1.743 0.097,-1.057 -0.593,-2.721 0.438,-3.485 1.031,-0.765 3.933,-0.872 3.933,-0.872 0,0 -1.158,-2.803 0.754,-3.087 0,0 1.464,-0.771 2.654,0.146 1.19,0.917 0.19,-1.75 1.44,-1.583 1.25,0.166 3.083,-0.751 3.917,-0.084 0,0 2.75,0.5 3.417,1.5 0.666,1 2.249,1.584 4.083,2.084 1.833,0.5 2.666,0.583 2.125,-0.917 -0.542,-1.5 -3.851,-3.75 -4.988,-3.833 -1.137,-0.084 -2.303,-0.334 -3.22,-1.334 -0.917,-1 -1.417,-2.583 -1.25,-3.333 0.166,-0.75 -0.75,0.917 -2.834,1 l -8.458,6.542 -1.25,0.375 0.25,-1.167 7.293,-6.764 c 0,0 -1.015,-1.176 1.312,-1.743 -0.776,-1.529 -0.914,-3.373 -0.438,-3.92 0.476,-0.548 2.622,-1.743 2.622,-1.743 0,0 0.651,-1.903 1.312,-2.178 0.659,-0.276 1.076,0.04 1.31,0.871 0.235,0.831 -0.265,3.487 -0.265,3.487 l 4.093,0.813 c 0,0 3.18,0.716 4.305,2.466 1.125,1.75 1.556,4.508 3.584,3.755 4.164,-1.544 -2.201,-8.089 -4.295,-8.343 -2.094,-0.253 -4.477,-2.987 -4.363,-4.792 0.113,-1.805 3.139,-1.451 3.496,-2.614 1.773,-5.785 -1.97,-10.719 -0.377,-13.504 1.596,-2.787 4.869,-3.486 4.869,-3.486 l 0,-2.178 c 0,0 -2.246,-1.983 -2.246,-5.228 0,-3.245 4.026,-5.107 4.026,-5.107 0,0 -2.792,-1.259 -1.887,-4.913 0.905,-3.653 1.592,-12.668 0.867,-23.525 -0.727,-10.855 -3.4,-39.236 -3.5,-50.317 -0.101,-11.08 1.553,-14.37 1.553,-14.37 l -8.094,0 c 0,0 2.09,-1.423 1.73,-5.234 -0.36,-3.81 -3.045,-9.903 -3.059,-12.96 -0.015,-3.056 3.358,-5.998 7.344,-6.377 -2.054,-0.475 -4.036,-1.638 -3.984,-3.441 0.052,-1.803 2.758,-2.284 2.758,-2.284 0,0 -8.74,-4.84 -8.74,-14.37 0,-9.529 10.05,-12.194 10.05,-12.194 0,0 -1.282,-1.33 -1.31,-3.049 -0.028,-1.718 1.93,-2.906 2.622,-3.92 0.692,-1.012 1.665,-4.139 1.311,-11.325 -0.354,-7.186 -4.732,-35.055 -5.681,-48.356 -0.949,-13.302 -0.478,-19.539 2.185,-24.397 -4.061,-0.002 -6.179,0 -6.179,0 0,0 4.297,-2.375 3.556,-4.792 -0.664,-2.17 -2.047,-9.482 -0.873,-12.634 1.174,-3.15 4.342,-7.439 7.567,-7.746 -3.499,-0.768 -4.349,-2.33 -4.349,-3.88 0,-1.549 1.53,-3.287 3.337,-3.185 -1.555,-1.863 -2.622,-9.568 -2.622,-16.119 0,-6.55 2.368,-12.279 2.368,-12.279 0,0 -2.922,-0.315 -3.242,-2.533 -0.32,-2.217 1.748,-3.05 1.748,-3.05 0,0 -3.934,-1.563 -3.934,-7.375 0,-5.813 3.18,-9.071 5.682,-9.178 -2.02,-0.339 -2.535,-3.322 -0.438,-4.357 -1.001,-0.721 -2.638,-2.735 -2.638,-5.411 0,-2.635 1.239,-7.076 7.51,-7.076 6.271,0 7.646,4.441 7.646,7.076 0,2.676 -1.532,4.592 -2.534,5.314 2.098,1.034 1.536,4.066 -0.484,4.405 2.502,0.107 5.658,3.39 5.658,9.202 0,5.813 -3.945,7.388 -3.945,7.388 0,0 2.063,0.839 1.743,3.056 -0.321,2.218 -3.246,2.536 -3.246,2.536 0,0 2.367,5.73 2.367,12.28 0,6.551 -1.068,14.257 -2.622,16.12 1.806,-0.102 3.336,1.637 3.336,3.186 0,1.55 -0.889,3.143 -4.388,3.912 3.224,0.306 6.431,4.564 7.605,7.714 1.174,3.152 -0.208,10.464 -0.873,12.634 -0.74,2.417 3.557,4.792 3.557,4.792 0,0 -2.118,-0.002 -6.18,0 2.663,4.858 3.135,11.095 2.186,24.397 -0.949,13.301 -5.327,41.17 -5.682,48.356 -0.353,7.186 0.619,10.314 1.312,11.326 0.692,1.014 2.65,2.203 2.622,3.921 -0.029,1.719 -1.311,3.05 -1.311,3.05 0,0 10.051,2.669 10.051,12.198 0,9.53 -8.74,14.376 -8.74,14.376 0,0 2.706,0.495 2.757,2.298 0.052,1.803 -1.929,2.993 -3.984,3.469 3.986,0.379 7.345,3.285 7.345,6.432 0,3.146 -2.699,9.04 -3.06,12.85 -0.359,3.811 1.731,5.234 1.731,5.234 l -8.094,0 c 0,0 1.657,3.29 1.557,14.37 -0.101,11.081 -2.77,39.352 -3.496,50.208 -0.726,10.857 -0.032,19.926 0.874,23.58 0.905,3.654 -1.873,4.939 -1.873,4.939 0,0 3.984,1.877 3.984,5.121 0,3.245 -2.257,5.242 -2.257,5.242 l 0,2.178 c 0,0 3.285,0.699 4.88,3.486 1.594,2.785 -2.174,7.719 -0.4,13.504 0.356,1.163 3.4,0.809 3.514,2.614 0.113,1.805 -2.261,4.539 -4.355,4.792 -2.094,0.254 -8.453,6.799 -4.29,8.343 2.028,0.753 2.461,-2.005 3.586,-3.755 1.125,-1.75 4.306,-2.466 4.306,-2.466 l 4.095,-0.813 c 0,0 -0.5,-2.656 -0.266,-3.487 0.234,-0.831 0.652,-1.147 1.311,-0.871 0.66,0.275 1.311,2.178 1.311,2.178 0,0 2.147,1.195 2.623,1.743 0,0 4.269,0.843 4.269,3.76 C 8.394,1 5.803,1 5.803,1 L 5.644,2.729 7.56,3.917 4.904,5.682 2.279,3.885 4.289,2.625 4.19,0.82 c 0,0 -2.255,-0.591 -2.255,-2.31 0,-1.718 -0.969,-1.75 -0.969,-1.75 0,0 -1.495,0.73 -0.966,3.24"
             inkscape:connector-curvature="0"
             id="path82"
             style="fill:#ffffff;fill-opacity:1;fill-rule:evenodd;stroke:none" /></g><g
           transform="translate(488.6899,564.0835)"
           id="g84"><path
             d="m 0,0 c 0.158,0.752 -0.333,2.333 -1.25,3.333 -0.917,1 -2.083,1.25 -3.22,1.334 C -5.607,4.75 -8.917,7 -9.458,8.5 -10,10 -9.167,9.917 -7.333,9.417 -5.5,8.917 -3.917,8.333 -3.25,7.333 c 0.667,-1 3.417,-1.5 3.417,-1.5 C 1,5.166 2.833,6.083 4.083,5.917 5.333,5.75 4.333,8.417 5.523,7.5 6.713,6.583 8.177,7.354 8.177,7.354 c 1.912,0.284 0.754,3.087 0.754,3.087 0,0 2.902,0.107 3.934,0.872 1.031,0.764 0.341,2.428 0.437,3.485 0.096,1.057 -1.57,1.02 -1.311,1.743 0.259,0.722 -0.874,1.742 -0.874,1.742 0,0 1.987,1.488 1.748,2.178 -0.24,0.69 -1.311,1.307 -1.311,1.307 0,0 1.448,1.854 1.311,2.614 -0.138,0.76 -1.311,0.871 -1.311,0.871 0,0 0.838,1.359 0.873,2.614 0.035,1.255 -1.547,0.496 -1.748,0.871 0.476,0.928 0.342,2.804 -1.179,1.824 0.917,1.875 0,4.73 -0.569,4.711 C 8.362,35.254 6.437,31.5 1.066,26.56 -0.519,25.103 -3.622,22.116 -3.741,21.768 -3.862,21.42 -3.954,20.21 -3.304,19.59 c 0.649,-0.621 2.212,-1.897 0.874,-3.049 -1.338,-1.154 -4.653,-1.159 -5.244,0 -0.591,1.157 1.427,1.442 1.31,2.177 -0.117,0.736 -1.934,1.581 -2.184,2.615 -0.25,1.033 -1.336,2.424 -0.874,3.484 0.462,1.061 0.547,2.55 2.185,2.614 1.637,0.065 2.416,-1.876 3.059,-0.871 0.641,1.005 0.874,1.743 0.874,1.743 0,0 0.993,-0.827 1.748,-0.436 0.755,0.391 0.93,1.608 0.436,2.178 -0.492,0.571 -1.052,1.954 -0.436,2.614 0.616,0.66 1.889,1.903 3.058,1.307 C 2.671,33.37 2.125,31.271 3.25,31.352 3.919,31.4 5,32.479 4.999,33.53 4.997,34.582 4.082,34.737 4.13,35.276 c 0.049,0.538 1.121,0.101 1.703,0.766 0.584,0.664 -0.781,0.781 -0.781,0.781 0,0 -0.309,1.018 -1.094,1.265 -0.89,0.282 -1.554,-0.816 -1.875,-0.328 -2.093,3.188 -4.187,0.391 -3.352,-0.765 0.49,-0.678 -0.194,-2.266 -1.335,-2.469 -1.141,-0.203 -0.192,1.14 -0.25,1.953 -0.156,2.203 -2.344,2.641 -2.635,3.15 -0.291,0.51 -0.058,1.863 -1.162,1.772 -1.103,-0.091 -1.006,-1.855 -1.023,-2.207 -0.018,-0.353 -0.662,-0.394 -1.311,-0.436 -1.293,-0.083 -0.39,-2.091 -1.432,-2.175 -1.041,-0.083 -1.791,1.834 -1.25,3.209 0.542,1.375 0.059,2.451 0.059,2.451 0,0 -0.434,1.135 -2.82,1.508 0.401,1.865 -1.143,1.666 -1.143,1.666 0,0 -1.461,0.199 -1.059,-1.666 -2.387,-0.373 -3.089,-1.625 -3.089,-1.625 0,0 -0.497,-1.018 0.044,-2.393 0.542,-1.375 -0.216,-3.263 -1.258,-3.179 -1.041,0.083 -0.142,2.107 -1.435,2.19 -0.648,0.041 -1.295,0.09 -1.312,0.443 -0.018,0.352 0.079,2.119 -1.025,2.21 -1.103,0.092 -0.871,-1.26 -1.162,-1.77 -0.291,-0.509 -2.479,-0.946 -2.635,-3.149 -0.058,-0.813 0.89,-2.156 -0.25,-1.953 -1.141,0.204 -1.826,1.792 -1.336,2.47 0.836,1.156 -1.258,3.953 -3.352,0.765 -0.321,-0.488 -0.984,0.61 -1.875,0.328 -0.784,-0.247 -1.094,-1.265 -1.094,-1.265 0,0 -1.365,-0.117 -0.781,-0.781 0.582,-0.665 1.654,-0.228 1.703,-0.766 0.049,-0.539 -0.867,-0.694 -0.868,-1.746 -0.001,-1.051 1.079,-2.13 1.748,-2.178 1.126,-0.081 0.579,2.018 1.748,2.614 1.169,0.596 2.442,-0.647 3.059,-1.307 0.616,-0.66 0.055,-2.043 -0.437,-2.614 -0.493,-0.57 -0.318,-1.787 0.437,-2.178 0.755,-0.391 1.748,0.436 1.748,0.436 0,0 0.232,-0.738 0.874,-1.743 0.642,-1.005 1.422,0.936 3.058,0.871 1.639,-0.064 1.724,-1.553 2.186,-2.614 0.462,-1.06 -0.624,-2.451 -0.874,-3.484 -0.25,-1.034 -2.067,-1.879 -2.185,-2.615 -0.117,-0.735 1.902,-1.02 1.311,-2.177 -0.591,-1.159 -3.906,-1.154 -5.244,0 -1.338,1.152 0.224,2.428 0.874,3.049 0.649,0.62 0.557,1.83 0.436,2.178 -0.119,0.348 -3.221,3.335 -4.806,4.792 -5.372,4.94 -7.297,8.694 -7.866,8.713 -0.568,0.019 -1.485,-2.836 -0.568,-4.711 -1.521,0.98 -1.655,-0.896 -1.18,-1.824 -0.201,-0.375 -1.783,0.384 -1.748,-0.871 0.035,-1.255 0.873,-2.614 0.873,-2.614 0,0 -1.172,-0.111 -1.31,-0.871 -0.138,-0.76 1.31,-2.614 1.31,-2.614 0,0 -1.07,-0.617 -1.31,-1.307 -0.239,-0.69 1.748,-2.178 1.748,-2.178 0,0 -1.133,-1.02 -0.874,-1.742 0.259,-0.723 -1.407,-0.686 -1.312,-1.743 0.097,-1.057 -0.593,-2.721 0.438,-3.485 1.031,-0.765 3.933,-0.872 3.933,-0.872 0,0 -1.158,-2.803 0.754,-3.087 0,0 1.464,-0.771 2.654,0.146 1.19,0.917 0.19,-1.75 1.44,-1.583 1.25,0.166 3.083,-0.751 3.917,-0.084 0,0 2.75,0.5 3.417,1.5 0.666,1 2.249,1.584 4.083,2.084 1.833,0.5 2.666,0.583 2.125,-0.917 -0.542,-1.5 -3.851,-3.75 -4.988,-3.833 -1.137,-0.084 -2.303,-0.334 -3.22,-1.334 -0.917,-1 -1.417,-2.583 -1.25,-3.333 0.166,-0.75 -0.75,0.917 -2.834,1 l -8.458,6.542 -1.25,0.375 0.25,-1.167 7.293,-6.764 c 0,0 -1.015,-1.176 1.312,-1.743 -0.776,-1.529 -0.914,-3.373 -0.438,-3.92 0.476,-0.548 2.622,-1.743 2.622,-1.743 0,0 0.651,-1.903 1.312,-2.178 0.659,-0.276 1.076,0.04 1.31,0.871 0.235,0.831 -0.265,3.487 -0.265,3.487 l 4.093,0.813 c 0,0 3.18,0.716 4.305,2.466 1.125,1.75 1.556,4.508 3.584,3.755 4.164,-1.544 -2.201,-8.089 -4.295,-8.343 -2.094,-0.253 -4.477,-2.987 -4.363,-4.792 0.113,-1.805 3.139,-1.451 3.496,-2.614 1.773,-5.785 -1.97,-10.719 -0.377,-13.504 1.596,-2.787 4.869,-3.486 4.869,-3.486 l 0,-2.178 c 0,0 -2.246,-1.983 -2.246,-5.228 0,-3.245 4.026,-5.107 4.026,-5.107 0,0 -2.792,-1.259 -1.887,-4.913 0.905,-3.653 1.592,-12.668 0.867,-23.525 -0.727,-10.855 -3.4,-39.236 -3.5,-50.317 -0.101,-11.08 1.553,-14.37 1.553,-14.37 l -8.094,0 c 0,0 2.09,-1.423 1.73,-5.234 -0.36,-3.81 -3.045,-9.903 -3.059,-12.96 -0.015,-3.056 3.358,-5.998 7.344,-6.377 -2.054,-0.475 -4.036,-1.638 -3.984,-3.441 0.052,-1.803 2.758,-2.284 2.758,-2.284 0,0 -8.74,-4.84 -8.74,-14.37 0,-9.529 10.05,-12.194 10.05,-12.194 0,0 -1.282,-1.33 -1.31,-3.049 -0.028,-1.718 1.93,-2.906 2.622,-3.92 0.692,-1.012 1.665,-4.139 1.311,-11.325 -0.354,-7.186 -4.732,-35.055 -5.681,-48.356 -0.949,-13.302 -0.478,-19.539 2.185,-24.397 -4.061,-0.002 -6.179,0 -6.179,0 0,0 4.297,-2.375 3.556,-4.792 -0.664,-2.17 -2.047,-9.482 -0.873,-12.634 1.174,-3.15 4.342,-7.439 7.567,-7.746 -3.499,-0.768 -4.349,-2.33 -4.349,-3.88 0,-1.549 1.53,-3.287 3.337,-3.185 -1.555,-1.863 -2.622,-9.568 -2.622,-16.119 0,-6.55 2.368,-12.279 2.368,-12.279 0,0 -2.922,-0.315 -3.242,-2.533 -0.32,-2.217 1.748,-3.05 1.748,-3.05 0,0 -3.934,-1.563 -3.934,-7.375 0,-5.813 3.18,-9.071 5.682,-9.178 -2.02,-0.339 -2.535,-3.322 -0.438,-4.357 -1.001,-0.721 -2.638,-2.735 -2.638,-5.411 0,-2.635 1.239,-7.076 7.51,-7.076 6.271,0 7.646,4.441 7.646,7.076 0,2.676 -1.532,4.592 -2.534,5.314 2.098,1.034 1.536,4.066 -0.484,4.405 2.502,0.107 5.658,3.39 5.658,9.202 0,5.813 -3.945,7.388 -3.945,7.388 0,0 2.063,0.839 1.743,3.056 -0.321,2.218 -3.246,2.536 -3.246,2.536 0,0 2.367,5.73 2.367,12.28 0,6.551 -1.068,14.257 -2.622,16.12 1.806,-0.102 3.336,1.637 3.336,3.186 0,1.55 -0.889,3.143 -4.388,3.912 3.224,0.306 6.431,4.564 7.605,7.714 1.174,3.152 -0.208,10.464 -0.873,12.634 -0.74,2.417 3.557,4.792 3.557,4.792 0,0 -2.118,-0.002 -6.18,0 2.663,4.858 3.135,11.095 2.186,24.397 -0.949,13.301 -5.327,41.17 -5.682,48.356 -0.353,7.186 0.619,10.314 1.312,11.326 0.692,1.014 2.65,2.203 2.622,3.921 -0.029,1.719 -1.311,3.05 -1.311,3.05 0,0 10.051,2.669 10.051,12.198 0,9.53 -8.74,14.376 -8.74,14.376 0,0 2.706,0.495 2.757,2.298 0.052,1.803 -1.929,2.993 -3.984,3.469 3.986,0.379 7.345,3.285 7.345,6.432 0,3.146 -2.699,9.04 -3.06,12.85 -0.359,3.811 1.731,5.234 1.731,5.234 l -8.094,0 c 0,0 1.657,3.29 1.557,14.37 -0.101,11.081 -2.77,39.352 -3.496,50.208 -0.726,10.857 -0.032,19.926 0.874,23.58 0.905,3.654 -1.873,4.939 -1.873,4.939 0,0 3.984,1.877 3.984,5.121 0,3.245 -2.257,5.242 -2.257,5.242 l 0,2.178 c 0,0 3.285,0.699 4.88,3.486 1.594,2.785 -2.174,7.719 -0.4,13.504 0.356,1.163 3.4,0.809 3.514,2.614 0.113,1.805 -2.261,4.539 -4.355,4.792 -2.094,0.254 -8.453,6.799 -4.29,8.343 2.028,0.753 2.461,-2.005 3.586,-3.755 1.125,-1.75 4.306,-2.466 4.306,-2.466 l 4.095,-0.813 c 0,0 -0.5,-2.656 -0.266,-3.487 0.234,-0.831 0.652,-1.147 1.311,-0.871 0.66,0.275 1.311,2.178 1.311,2.178 0,0 2.147,1.195 2.623,1.743 0,0 4.269,0.843 4.269,3.76 C 8.394,1 5.803,1 5.803,1 L 5.644,2.729 7.56,3.917 4.904,5.682 2.279,3.885 4.289,2.625 4.19,0.82 c 0,0 -2.255,-0.591 -2.255,-2.31 0,-1.718 -0.969,-1.75 -0.969,-1.75 0,0 -1.495,0.73 -0.966,3.24 z"
             inkscape:connector-curvature="0"
             id="path86"
             style="fill:none;stroke:#000000;stroke-width:1;stroke-linecap:butt;stroke-linejoin:miter;stroke-miterlimit:10;stroke-opacity:1;stroke-dasharray:none" /></g><g
           transform="translate(473,587.9062)"
           id="g88"><path
             d="M 0,0 C 0,0 -0.687,0.281 -0.906,1.281 -1.125,2.281 -1.5,3.469 -2.781,5 -4.062,6.531 -3.156,8.719 -2,9.281 c 1.156,0.563 1.969,2.313 1.969,2.313 0,0 0.898,-1.75 2.054,-2.313 C 3.18,8.719 4.086,6.578 2.805,5.047 1.523,3.516 1.148,2.305 0.93,1.305 0.711,0.305 0,0 0,0"
             inkscape:connector-curvature="0"
             id="path90"
             style="fill:#000000;fill-opacity:1;fill-rule:evenodd;stroke:none" /></g><g
           transform="translate(546.875,299.125)"
           id="g92"><path
             d="M 0,0 C 0,0 13.021,8.001 15.5,16.333"
             inkscape:connector-curvature="0"
             id="path94"
             style="fill:none;stroke:#000000;stroke-width:1;stroke-linecap:butt;stroke-linejoin:miter;stroke-miterlimit:10;stroke-opacity:1;stroke-dasharray:none" /></g><g
           transform="translate(315,468.5)"
           id="g96"><path
             d="m 0,0 13,0 3.723,13.262"
             inkscape:connector-curvature="0"
             id="path98"
             style="fill:none;stroke:#000000;stroke-width:1;stroke-linecap:butt;stroke-linejoin:miter;stroke-miterlimit:10;stroke-opacity:1;stroke-dasharray:none" /></g><g
           transform="translate(399.0215,550.1587)"
           id="g100"><path
             d="M 0,0 -0.521,-14.909 -13.11,-19.604"
             inkscape:connector-curvature="0"
             id="path102"
             style="fill:none;stroke:#000000;stroke-width:1;stroke-linecap:butt;stroke-linejoin:miter;stroke-miterlimit:10;stroke-opacity:1;stroke-dasharray:none" /></g><g
           transform="translate(420.8711,511.8218)"
           id="g104"><path
             d="m 0,0 c 0,0 -10.705,15.012 -22.371,23.428 -11.667,8.417 -42.561,21.689 -67.864,-1.281 0,0 -28.636,-34.802 -2.636,-65.469 14.333,-16 24.262,-22.896 24.262,-22.896"
             inkscape:connector-curvature="0"
             id="path106"
             style="fill:none;stroke:#000000;stroke-width:1;stroke-linecap:butt;stroke-linejoin:miter;stroke-miterlimit:10;stroke-opacity:1;stroke-dasharray:none" /></g><g
           transform="translate(363.9546,293.7949)"
           id="g108"><path
             d="m 0,0 c 0,0 4.795,2.622 10.462,-3.128 5.667,-5.75 4.117,-10.367 4.117,-10.367"
             inkscape:connector-curvature="0"
             id="path110"
             style="fill:none;stroke:#000000;stroke-width:1;stroke-linecap:butt;stroke-linejoin:miter;stroke-miterlimit:10;stroke-opacity:1;stroke-dasharray:none" /></g><g
           transform="translate(567.667,278.833)"
           id="g112"><path
             d="m 0,0 c 0,0 -3.26,5.656 3.495,12.245 6.755,6.589 11.751,2.036 11.751,2.036"
             inkscape:connector-curvature="0"
             id="path114"
             style="fill:none;stroke:#000000;stroke-width:1;stroke-linecap:butt;stroke-linejoin:miter;stroke-miterlimit:10;stroke-opacity:1;stroke-dasharray:none" /></g><g
           transform="translate(465.147,192.4658)"
           id="g116"><path
             d="M 0,0 16.025,-0.028"
             inkscape:connector-curvature="0"
             id="path118"
             style="fill:#000000;fill-opacity:1;fill-rule:nonzero;stroke:#000000;stroke-width:1.25999999;stroke-linecap:butt;stroke-linejoin:miter;stroke-miterlimit:10;stroke-opacity:1;stroke-dasharray:none" /></g><g
           transform="translate(465,196.5)"
           id="g120"><path
             d="M 0,0 16,0"
             inkscape:connector-curvature="0"
             id="path122"
             style="fill:#000000;fill-opacity:1;fill-rule:nonzero;stroke:#000000;stroke-width:1;stroke-linecap:butt;stroke-linejoin:miter;stroke-miterlimit:10;stroke-opacity:1;stroke-dasharray:none" /></g><g
           transform="translate(464.4224,213.376)"
           id="g124"><path
             d="M 0,0 C 0,0 7.507,0.101 17.19,-0.013"
             inkscape:connector-curvature="0"
             id="path126"
             style="fill:#000000;fill-opacity:1;fill-rule:nonzero;stroke:#000000;stroke-width:1.17200005;stroke-linecap:butt;stroke-linejoin:miter;stroke-miterlimit:10;stroke-opacity:1;stroke-dasharray:none" /></g><g
           transform="translate(465.4849,219.958)"
           id="g128"><path
             d="M 0,0 15.057,-0.003"
             inkscape:connector-curvature="0"
             id="path130"
             style="fill:#000000;fill-opacity:1;fill-rule:nonzero;stroke:#000000;stroke-width:1.25699997;stroke-linecap:butt;stroke-linejoin:miter;stroke-miterlimit:10;stroke-opacity:1;stroke-dasharray:none" /></g><g
           transform="translate(465.8574,247.2236)"
           id="g132"><path
             d="M 0,0 C 0,0 5.878,1.621 14.31,-0.002"
             inkscape:connector-curvature="0"
             id="path134"
             style="fill:#000000;fill-opacity:1;fill-rule:nonzero;stroke:#000000;stroke-width:1.58700001;stroke-linecap:butt;stroke-linejoin:miter;stroke-miterlimit:10;stroke-opacity:1;stroke-dasharray:none" /></g><g
           transform="translate(465.4756,254.4687)"
           id="g136"><path
             d="M 0,0 15.483,0.006"
             inkscape:connector-curvature="0"
             id="path138"
             style="fill:#000000;fill-opacity:1;fill-rule:nonzero;stroke:#000000;stroke-width:1.50100005;stroke-linecap:butt;stroke-linejoin:miter;stroke-miterlimit:10;stroke-opacity:1;stroke-dasharray:none" /></g><g
           transform="translate(457,279.5)"
           id="g140"><path
             d="M 0,0 32,0"
             inkscape:connector-curvature="0"
             id="path142"
             style="fill:#000000;fill-opacity:1;fill-rule:nonzero;stroke:#000000;stroke-width:1;stroke-linecap:butt;stroke-linejoin:miter;stroke-miterlimit:10;stroke-opacity:1;stroke-dasharray:none" /></g><g
           transform="translate(466.1265,370.417)"
           id="g144"><path
             d="M 0,0 C 5.458,-0.75 6.956,-0.87 13.905,0.083"
             inkscape:connector-curvature="0"
             id="path146"
             style="fill:#000000;fill-opacity:1;fill-rule:nonzero;stroke:#000000;stroke-width:1.42999995;stroke-linecap:butt;stroke-linejoin:miter;stroke-miterlimit:10;stroke-opacity:1;stroke-dasharray:none" /></g><g
           transform="translate(464.5937,397.2041)"
           id="g148"><path
             d="M 0,0 C 0,0 0.461,0.084 16.469,0.014"
             inkscape:connector-curvature="0"
             id="path150"
             style="fill:#000000;fill-opacity:1;fill-rule:nonzero;stroke:#000000;stroke-width:1.22500002;stroke-linecap:butt;stroke-linejoin:miter;stroke-miterlimit:10;stroke-opacity:1;stroke-dasharray:none" /></g><g
           transform="translate(464.8437,402.9297)"
           id="g152"><path
             d="M 0,0 16.5,0.055"
             inkscape:connector-curvature="0"
             id="path154"
             style="fill:#000000;fill-opacity:1;fill-rule:nonzero;stroke:#000000;stroke-width:1.26600003;stroke-linecap:butt;stroke-linejoin:miter;stroke-miterlimit:10;stroke-opacity:1;stroke-dasharray:none" /></g><g
           transform="translate(466,427.5)"
           id="g156"><path
             d="M 0,0 14,0"
             inkscape:connector-curvature="0"
             id="path158"
             style="fill:#000000;fill-opacity:1;fill-rule:nonzero;stroke:#000000;stroke-width:1;stroke-linecap:butt;stroke-linejoin:miter;stroke-miterlimit:10;stroke-opacity:1;stroke-dasharray:none" /></g><g
           transform="translate(467.6133,520.625)"
           id="g160"><path
             d="M 0,0 10.827,-0.027"
             inkscape:connector-curvature="0"
             id="path162"
             style="fill:none;stroke:#000000;stroke-width:1;stroke-linecap:butt;stroke-linejoin:miter;stroke-miterlimit:10;stroke-opacity:1;stroke-dasharray:none" /></g><g
           transform="translate(469.5,533.1387)"
           id="g164"><path
             d="M 0,0 7.104,0.007"
             inkscape:connector-curvature="0"
             id="path166"
             style="fill:none;stroke:#ffffff;stroke-width:1;stroke-linecap:butt;stroke-linejoin:miter;stroke-miterlimit:10;stroke-opacity:1;stroke-dasharray:none" /></g><g
           transform="translate(462.4272,549.7783)"
           id="g168"><path
             d="M 0,0 C 0,0 9.575,-3.123 21.646,0.208"
             inkscape:connector-curvature="0"
             id="path170"
             style="fill:none;stroke:#000000;stroke-width:1.24899995;stroke-linecap:butt;stroke-linejoin:miter;stroke-miterlimit:10;stroke-opacity:1;stroke-dasharray:none" /></g><g
           transform="translate(565.5625,549.75)"
           id="g172"><path
             d="M 0,0 C 0,0 8.5,4.562 19.184,2.587"
             inkscape:connector-curvature="0"
             id="path174"
             style="fill:none;stroke:#000000;stroke-width:1;stroke-linecap:butt;stroke-linejoin:miter;stroke-miterlimit:10;stroke-opacity:1;stroke-dasharray:none" /></g><g
           transform="translate(621.4541,499.624)"
           id="g176"><path
             d="M 0,0 C 0,0 5.187,-1.901 7.866,-11.763"
             inkscape:connector-curvature="0"
             id="path178"
             style="fill:none;stroke:#000000;stroke-width:1;stroke-linecap:butt;stroke-linejoin:miter;stroke-miterlimit:10;stroke-opacity:1;stroke-dasharray:none" /></g><g
           transform="translate(477,575)"
           id="g180"><path
             d="m 0,0 -1.453,0 c -1.156,0 -2.609,-1.625 -2.609,-1.625 0,0 -1.36,1.625 -2.641,1.625 L -8,0 -8,10 0,10 0,0 z"
             inkscape:connector-curvature="0"
             id="path182"
             style="fill:#000000;fill-opacity:1;fill-rule:nonzero;stroke:none" /></g><g
           transform="translate(530.1211,546.6733)"
           id="g184"><path
             d="M 0,0 C 0,0 -6.246,-7.048 -16.121,-34.173 -2.246,-14.673 6.555,-6.97 6.555,-6.97"
             inkscape:connector-curvature="0"
             id="path186"
             style="fill:none;stroke:#000000;stroke-width:1;stroke-linecap:butt;stroke-linejoin:miter;stroke-miterlimit:10;stroke-opacity:1;stroke-dasharray:none" /></g><g
           transform="translate(553.2812,537.0894)"
           id="g188"><path
             d="M 0,0 C 0,0 -8.593,-9.652 -18.354,-35.288 -5.531,-17.673 5.682,-6.97 5.682,-6.97"
             inkscape:connector-curvature="0"
             id="path190"
             style="fill:none;stroke:#000000;stroke-width:1;stroke-linecap:butt;stroke-linejoin:miter;stroke-miterlimit:10;stroke-opacity:1;stroke-dasharray:none" /></g><g
           transform="translate(630.6309,510.5146)"
           id="g192"><path
             d="M 0,0 C 0,0 -15.756,11.235 -33.212,5.664"
             inkscape:connector-curvature="0"
             id="path194"
             style="fill:none;stroke:#000000;stroke-width:1;stroke-linecap:butt;stroke-linejoin:miter;stroke-miterlimit:10;stroke-opacity:1;stroke-dasharray:none" /></g><g
           transform="translate(611.4023,480.4551)"
           id="g196"><path
             d="m 0,0 c 0,0 -12.406,-14.497 -28.404,-25.268 27.252,12.563 34.96,20.04 34.96,20.04"
             inkscape:connector-curvature="0"
             id="path198"
             style="fill:none;stroke:#000000;stroke-width:1;stroke-linecap:butt;stroke-linejoin:miter;stroke-miterlimit:10;stroke-opacity:1;stroke-dasharray:none" /></g><g
           transform="translate(627.5723,454.3164)"
           id="g200"><path
             d="m 0,0 c 0,0 -8.473,-9.996 -35.397,-21.781 21.075,16.59 29.279,27.34 29.279,27.34"
             inkscape:connector-curvature="0"
             id="path202"
             style="fill:none;stroke:#000000;stroke-width:1;stroke-linecap:butt;stroke-linejoin:miter;stroke-miterlimit:10;stroke-opacity:1;stroke-dasharray:none" /></g><g
           transform="translate(468.146,532.3726)"
           id="g204"><path
             d="M 0,0 10.271,-0.019"
             inkscape:connector-curvature="0"
             id="path206"
             style="fill:none;stroke:#000000;stroke-width:1;stroke-linecap:butt;stroke-linejoin:miter;stroke-miterlimit:10;stroke-opacity:1;stroke-dasharray:none" /></g></g></g></g></svg>